<?xml version="1.0" encoding="UTF-8"?><!DOCTYPE svg PUBLIC "-//W3C//DTD SVG 1.1//EN" "http://www.w3.org/Graphics/SVG/1.1/DTD/svg11.dtd"><svg xmlns="http://www.w3.org/2000/svg"><symbol id="icon-icon-arrow" viewBox="0 0 19 32"><title>arrow</title><path d="M.98 31.117c-1.259-1.205-1.355-2.875 0-4.345l10.574-10.774L.98 5.221C-.375 3.754-.279 2.078.98.884c1.256-1.202 3.378-1.128 4.557 0 1.18 1.117 12.704 12.944 12.704 12.944a2.98 2.98 0 0 1 .945 2.17 3.01 3.01 0 0 1-.945 2.175S6.716 29.992 5.537 31.117s-3.302 1.202-4.557 0z"/></symbol><symbol id="icon-icon-delete" viewBox="0 0 32 32"><title>delete</title><path d="M16 0C7.164 0 0 7.164 0 16s7.164 16 16 16 16-7.164 16-16S24.836 0 16 0zm9.122 21.83l-3.293 3.293L16 19.293l-5.83 5.829-3.293-3.293L12.709 16l-5.83-5.83 3.293-3.291 5.829 5.829 5.83-5.83 3.293 3.293-5.832 5.83 5.83 5.83z"/></symbol><symbol id="icon-icon-facebook" viewBox="0 0 32 32"><title>facebook</title><path d="M19.428 16.006h-2.242V24h-3.322v-7.994h-1.581v-2.824h1.581v-1.828c0-1.307.621-3.354 3.352-3.354l2.461.01v2.742h-1.786c-.291 0-.705.147-.705.77v1.66h2.533l-.291 2.824zM27 0H5C2.24 0 0 2.24 0 5v22a5 5 0 0 0 5 5h22a5 5 0 0 0 5-5V5a5 5 0 0 0-5-5z"/></symbol><symbol id="icon-icon-hamburger" viewBox="0 0 45 32"><title>hamburger</title><path d="M32.436 19.2H1.458C.122 19.2.006 17.77.006 16s.116-3.2 1.452-3.2h30.978c1.336 0 1.452 1.43 1.452 3.2s-.116 3.2-1.452 3.2zm10.81-12.8H1.942C.161 6.4.006 4.97.006 3.2S.161 0 1.942 0h41.304c1.781 0 1.936 1.43 1.936 3.2s-.155 3.2-1.936 3.2zM1.942 25.6h41.304c1.781 0 1.936 1.43 1.936 3.2s-.155 3.2-1.936 3.2H1.942C.161 32 .006 30.57.006 28.8s.155-3.2 1.936-3.2z"/></symbol><symbol id="icon-icon-plane" viewBox="0 0 32 32"><title>plane</title><path d="M20.158 28.643c-.657-1.869-3.008-8.144-3.983-10.74-1.838 1.257-3.89 2.447-5.853 3.288-.61 2.183-1.823 6.326-2.41 6.878-1.007.95-1.387.827-1.542-.476s-.808-5.519-.808-5.519S1.959 19.995.829 19.4s-1.112-1.008.095-1.661c.703-.38 4.878-.145 7.07.009 1.435-1.622 3.218-3.21 4.988-4.569-2.025-1.835-6.916-6.268-8.39-7.545-1.293-1.122.132-1.359.132-1.359.65-.119 2.037-.225 2.713-.015 4.207 1.301 10.736 3.527 12.271 4.052l1.937-1.4C29.481 1.233 31.456 2.49 31.83 3.04s.838 2.901-6.998 8.582c-.708.513-1.347.977-1.933 1.404-.048 1.671-.262 8.785-.518 13.322-.042.73-.612 2.043-.942 2.633-.002 0-.705 1.305-1.28-.338z"/></symbol><symbol id="icon-icon-search" viewBox="0 0 32 32"><title>search</title><path d="M31.282 27.074l-7.654-7.655a12.461 12.461 0 0 0 1.819-6.502C25.447 5.996 19.45 0 12.529 0 5.608-.002 0 5.609 0 12.53c0 6.919 5.997 12.917 12.916 12.917a12.45 12.45 0 0 0 6.309-1.71l7.694 7.699a1.93 1.93 0 0 0 2.726 0l1.91-1.91c.751-.751.478-1.701-.273-2.453zM3.857 12.531a8.673 8.673 0 0 1 8.673-8.675c4.792 0 9.061 4.268 9.061 9.062a8.676 8.676 0 0 1-8.675 8.675c-4.792-.002-9.059-4.272-9.059-9.062z"/></symbol><symbol id="icon-icon-shopping-basket" viewBox="0 0 32 32"><title>shopping-basket</title><path d="M1.068 11.508H9.97l3.221 3.255a4.216 4.216 0 0 0 3.015 1.262 4.215 4.215 0 0 0 3.018-1.264 4.312 4.312 0 0 0 1.25-3.046c0-.07-.018-.139-.019-.208h10.479a1.07 1.07 0 0 1 1.067 1.078v4.312h-32v-4.312c0-.597.48-1.078 1.069-1.078zm13.566 1.795L5.647 4.221a1.086 1.086 0 0 1-.004-1.526l1.635-1.653a1.063 1.063 0 0 1 1.511 0l8.987 9.084c.868.877.868 2.3 0 3.177a2.208 2.208 0 0 1-3.143 0zm12.346 16.66c-.173.72-.916 1.31-1.648 1.31H6.665c-.732 0-1.476-.59-1.648-1.31L2.309 18.696h27.378l-2.708 11.267z"/></symbol><symbol id="icon-icon-twitter" viewBox="0 0 32 32"><title>twitter</title><path d="M22.362 12.738c.007.141.01.281.01.424 0 4.338-3.302 9.34-9.34 9.34A9.284 9.284 0 0 1 8 21.027c.258.031.518.045.783.045a6.576 6.576 0 0 0 4.076-1.404 3.283 3.283 0 0 1-3.065-2.28 3.23 3.23 0 0 0 1.481-.056 3.286 3.286 0 0 1-2.633-3.219v-.041c.444.246.949.395 1.488.41a3.28 3.28 0 0 1-1.46-2.732c0-.602.162-1.164.444-1.651a9.315 9.315 0 0 0 6.766 3.43A3.28 3.28 0 0 1 19.078 9.5c.943 0 1.797.398 2.395 1.035a6.6 6.6 0 0 0 2.085-.795 3.284 3.284 0 0 1-1.443 1.814A6.48 6.48 0 0 0 24 11.039a6.665 6.665 0 0 1-1.638 1.699zM27 0H5a5 5 0 0 0-5 5v22a5 5 0 0 0 5 5h22a5 5 0 0 0 5-5V5c0-2.76-2.239-5-5-5z"/></symbol></svg>