<svg xmlns="http://www.w3.org/2000/svg" width="32" height="32" viewBox="0 0 32 32"><title>plane</title><path d="M20.158 28.643c-.657-1.869-3.008-8.144-3.983-10.74-1.838 1.257-3.89 2.447-5.853 3.288-.61 2.183-1.823 6.326-2.41 6.878-1.007.95-1.387.827-1.542-.476s-.808-5.519-.808-5.519S1.959 19.995.829 19.4s-1.112-1.008.095-1.661c.703-.38 4.878-.145 7.07.009 1.435-1.622 3.218-3.21 4.988-4.569-2.025-1.835-6.916-6.268-8.39-7.545-1.293-1.122.132-1.359.132-1.359.65-.119 2.037-.225 2.713-.015 4.207 1.301 10.736 3.527 12.271 4.052l1.937-1.4C29.481 1.233 31.456 2.49 31.83 3.04s.838 2.901-6.998 8.582c-.708.513-1.347.977-1.933 1.404-.048 1.671-.262 8.785-.518 13.322-.042.73-.612 2.043-.942 2.633-.002 0-.705 1.305-1.28-.338z"/></svg>