<svg xmlns="http://www.w3.org/2000/svg" width="32" height="32" viewBox="0 0 32 32"><title>search</title><path d="M31.282 27.074l-7.654-7.655a12.461 12.461 0 0 0 1.819-6.502C25.447 5.996 19.45 0 12.529 0 5.608-.002 0 5.609 0 12.53c0 6.919 5.997 12.917 12.916 12.917a12.45 12.45 0 0 0 6.309-1.71l7.694 7.699a1.93 1.93 0 0 0 2.726 0l1.91-1.91c.751-.751.478-1.701-.273-2.453zM3.857 12.531a8.673 8.673 0 0 1 8.673-8.675c4.792 0 9.061 4.268 9.061 9.062a8.676 8.676 0 0 1-8.675 8.675c-4.792-.002-9.059-4.272-9.059-9.062z"/></svg>