<svg xmlns="http://www.w3.org/2000/svg" width="32" height="32" viewBox="0 0 32 32"><title>twitter</title><path d="M22.362 12.738c.007.141.01.281.01.424 0 4.338-3.302 9.34-9.34 9.34A9.284 9.284 0 0 1 8 21.027c.258.031.518.045.783.045a6.576 6.576 0 0 0 4.076-1.404 3.283 3.283 0 0 1-3.065-2.28 3.23 3.23 0 0 0 1.481-.056 3.286 3.286 0 0 1-2.633-3.219v-.041c.444.246.949.395 1.488.41a3.28 3.28 0 0 1-1.46-2.732c0-.602.162-1.164.444-1.651a9.315 9.315 0 0 0 6.766 3.43A3.28 3.28 0 0 1 19.078 9.5c.943 0 1.797.398 2.395 1.035a6.6 6.6 0 0 0 2.085-.795 3.284 3.284 0 0 1-1.443 1.814A6.48 6.48 0 0 0 24 11.039a6.665 6.665 0 0 1-1.638 1.699zM27 0H5a5 5 0 0 0-5 5v22a5 5 0 0 0 5 5h22a5 5 0 0 0 5-5V5c0-2.76-2.239-5-5-5z"/></svg>