<svg xmlns="http://www.w3.org/2000/svg" width="32" height="32" viewBox="0 0 32 32"><title>shopping-basket</title><path d="M1.068 11.508H9.97l3.221 3.255a4.216 4.216 0 0 0 3.015 1.262 4.215 4.215 0 0 0 3.018-1.264 4.312 4.312 0 0 0 1.25-3.046c0-.07-.018-.139-.019-.208h10.479a1.07 1.07 0 0 1 1.067 1.078v4.312h-32v-4.312c0-.597.48-1.078 1.069-1.078zm13.566 1.795L5.647 4.221a1.086 1.086 0 0 1-.004-1.526l1.635-1.653a1.063 1.063 0 0 1 1.511 0l8.987 9.084c.868.877.868 2.3 0 3.177a2.208 2.208 0 0 1-3.143 0zm12.346 16.66c-.173.72-.916 1.31-1.648 1.31H6.665c-.732 0-1.476-.59-1.648-1.31L2.309 18.696h27.378l-2.708 11.267z"/></svg>