<svg width="80" height="69" xmlns="http://www.w3.org/2000/svg" xmlns:xlink="http://www.w3.org/1999/xlink"><defs><path id="a" d="M0 .034h79.97V69H0z"/></defs><g fill="none" fill-rule="evenodd"><path d="M2 1v66h39.06C66.826 67 78 52.785 78 33.935 78 15.16 66.826 1 41.06 1H2z" fill="#FFF"/><mask id="b" fill="#fff"><use xlink:href="#a"/></mask><path d="M3.998 4.013v61.01h37.247c22.487 0 34.722-10.428 34.722-30.583 0-20.714-13.263-30.428-34.722-30.428H3.998v.001zM0 .033h41.245C69.24.034 79.97 15.249 79.97 34.44 79.97 57.453 64.985 69 41.245 69H0V.034z" fill="#000" mask="url(#b)"/><path fill="#000" d="M9 60h11V39H9zm6.5-39a7.5 7.5 0 1 1 0 15 7.5 7.5 0 0 1 0-15"/><path d="M26 24.843v6.873h2.12c1.47 0 2.827-.423 2.827-3.492 0-2.997-1.51-3.381-2.827-3.381H26zm35.384-3.422h3.434v10.295h5.083C68.506 13.036 53.739 9 40.312 9h-14.31v12.429h2.118c3.862 0 6.26 2.605 6.26 6.797 0 4.325-2.34 6.907-6.26 6.907h-2.118V60h14.311C62.133 60 69.731 49.918 70 35.13h-8.616V21.422zm-9.56 7.648h2.484l-1.14-3.874h-.207l-1.137 3.874zm-5.354 6.064l4.153-13.713h4.883l4.152 13.713h-3.572l-.78-2.652h-4.489l-.78 2.652H46.47zm-1.485-3.418v3.416h-8.488V21.425h8.217v3.414h-4.785v1.587h4.524v3.416H39.93v1.874h5.056z" fill="#D50072"/></g></svg>