<?xml version="1.0" encoding="UTF-8"?>
<svg width="80px" height="69px" viewBox="0 0 80 69" version="1.1" xmlns="http://www.w3.org/2000/svg" xmlns:xlink="http://www.w3.org/1999/xlink">
    <!-- Generator: Sketch 49.2 (51160) - http://www.bohemiancoding.com/sketch -->
    <title>Ideal</title>
    <desc>Created with Sketch.</desc>
    <defs>
        <polygon id="path-1" points="4.33604336e-06 0.0339606004 79.9695653 0.0339606004 79.9695653 68.9999827 4.33604336e-06 68.9999827"></polygon>
    </defs>
    <g id="Desktop-1280px" stroke="none" stroke-width="1" fill="none" fill-rule="evenodd">
        <g id="01---Desktop---Home-met-6-cat" transform="translate(-1240.000000, -1906.000000)">
            <g id="Footer" transform="translate(0.000000, 1809.000000)">
                <g id="Ideal" transform="translate(1240.000000, 97.000000)">
                    <path d="M2,1 L2,67 L41.0600491,67 C66.8264153,67 78,52.7851273 78,33.9353959 C78,15.1588867 66.8264153,1 41.0600491,1 L2,1 Z" id="Fill-1" fill="#FFFFFF"></path>
                    <g id="Group-5">
                        <mask id="mask-2" fill="white">
                            <use xlink:href="#path-1"></use>
                        </mask>
                        <g id="Clip-4"></g>
                        <path d="M3.99848672,4.01320225 L3.99848672,65.0231835 L41.2450992,65.0231835 C63.7324271,65.0231835 75.9674407,54.5951216 75.9674407,34.4397426 C75.9674407,13.725934 62.7043946,4.011994 41.2450992,4.011994 L3.99848672,4.011994 L3.99848672,4.01320225 Z M4.33604336e-06,0.0339433396 L41.2450992,0.0339433396 C69.2393756,0.0339433396 79.9695653,15.2478176 79.9695653,34.4397426 C79.9695653,57.4527313 64.9853702,68.9999827 41.2450992,68.9999827 L4.33604336e-06,68.9999827 L4.33604336e-06,0.0339433396 Z" id="Fill-3" fill="#000000" mask="url(#mask-2)"></path>
                    </g>
                    <polygon id="Fill-6" fill="#000000" points="9 60 20 60 20 39 9 39"></polygon>
                    <path d="M15.5,21 C19.6421199,21 23,24.3578801 23,28.5 C23,32.6421199 19.6421199,36 15.5,36 C11.3578801,36 8,32.6421199 8,28.5 C8,24.3578801 11.3578801,21 15.5,21" id="Fill-8" fill="#000000"></path>
                    <path d="M26,24.842873 L26,31.7163313 L28.120139,31.7163313 C29.5893038,31.7163313 30.947352,31.2934852 30.947352,28.224349 C30.947352,25.2268437 29.4366431,24.842873 28.120139,24.842873 L26,24.842873 Z M61.3838947,21.4213148 L64.8181118,21.4213148 L64.8181118,31.7163313 L69.9010131,31.7163313 C68.5063592,13.0363681 53.7387274,9 40.3120755,9 L26.0024693,9 L26.0024693,21.4285986 L28.120139,21.4285986 C31.9817976,21.4285986 34.3791432,24.0336427 34.3791432,28.2255127 C34.3791432,32.5510763 32.039197,35.1330193 28.120139,35.1330193 L26.0024693,35.1330193 L26.0024693,60 L40.3132885,60 C62.1325129,60 69.7312842,49.9175918 70,35.1306057 L61.3838947,35.1306057 L61.3838947,21.4213148 Z M51.8237533,29.0687483 L54.3078262,29.0687483 L53.1683722,25.1952089 L52.9607813,25.1952089 L51.8237966,29.0687483 L51.8237533,29.0687483 Z M46.4697536,35.1330193 L50.623261,21.4201081 L55.5058925,21.4201081 L59.6582304,35.1330193 L56.0860381,35.1330193 L55.3068791,32.4806092 L50.817466,32.4806092 L50.0370507,35.1330193 L46.4697536,35.1330193 Z M44.9846469,31.7151245 L44.9846469,35.1306057 L36.496813,35.1306057 L36.496813,21.4249783 L44.7135484,21.4249783 L44.7135484,24.8392527 L39.9286042,24.8392527 L39.9286042,26.4260786 L44.4534533,26.4260786 L44.4534533,29.8415167 L39.9286042,29.8415167 L39.9286042,31.7163313 L44.9846469,31.7151245 Z" id="Fill-9" fill="#D50072"></path>
                </g>
            </g>
        </g>
    </g>
</svg>